<?xml version="1.0" encoding="UTF-8"?>
<svg width="125px" height="50px" viewBox="0 0 125 50" version="1.1" xmlns="http://www.w3.org/2000/svg" xmlns:xlink="http://www.w3.org/1999/xlink">
    
    <title>Group 2 Copy</title>
    <desc></desc>
    <defs></defs>
    <g id="Mobile-Menu-Logged-Out" stroke="none" stroke-width="1" fill="none" fill-rule="evenodd" transform="translate(-22.000000, -15.000000)">
        <g id="Group-2-Copy" transform="translate(22.000000, 15.000000)">
            <path d="M64.4592087,15.1225572 C65.3129062,19.2447621 60.8470657,21.7763532 57.292379,22.1205046 C56.4754137,22.1937764 55.6655497,22.0636945 54.9483892,21.6110872 C54.669375,21.4384625 54.4338722,21.1859166 54.2397501,20.9144556 C54.0442079,20.6836653 52.8605606,19.0135182 52.6489438,18.6600056 C52.4552736,18.958645 52.1606367,19.2333983 51.8849149,19.5495325 C51.5867273,19.9259627 51.1847326,20.3598484 50.8858349,20.7566139 C50.6522041,21.0334977 50.2494993,21.4877187 49.9352371,21.7414266 C49.2014854,22.3469685 48.5211866,22.5878941 47.5786585,22.7585819 C45.8163246,23.083883 44.1465006,21.9261226 43.2439979,20.3675941 C43.0330912,19.9937461 42.886031,19.5406871 42.715795,19.1682593 C42.6023043,18.9199742 42.5441387,18.8365023 42.4313582,18.5678818 C42.4117329,18.5468363 42.3578281,18.3413523 42.3578281,18.3413523 C42.2114781,17.8679578 42.1367861,17.0916633 42.1367861,17.0916633 C42.1228418,16.9079348 42.1096077,16.7038711 42.1091559,16.1337707 C42.0931461,14.2600764 43.0054619,12.6224017 44.5682511,11.5978868 C45.8806247,10.7478686 47.2026819,10.2035911 48.7706354,10.1972648 C49.0560407,10.1868712 50.0139333,10.159241 50.0200661,10.5666585 C50.0451141,11.0154568 49.6677155,11.3280404 49.3998051,11.4204856 C48.6367446,11.6992414 47.7081607,12.0536577 47.2044891,12.4839927 C46.6587266,12.9535782 45.999215,13.7653143 45.8655825,14.6768551 C45.7234284,15.8324204 45.6697171,16.7874725 46.1775847,17.9860972 C46.5362617,18.7926689 47.2413501,19.5909773 47.7208773,19.8520448 C48.4605036,20.2443561 49.0136258,18.9809811 49.4338255,18.6088117 C49.9164516,18.1981019 50.6170857,17.9578865 51.2734984,17.8179276 C51.6655514,17.6687371 52.0547639,17.600888 52.41796,17.6950117 C51.9902719,15.9494626 52.7552693,14.4491645 53.5841132,12.8696554 C54.370156,11.3497321 55.4174598,10.5108177 57.0431271,10.0178628 C58.68984,9.50528264 60.2774188,9.52000179 61.664678,10.6068143 C63.0519372,11.6936269 64.0083448,13.4576394 64.4592087,15.1225572 Z M59.767484,19.458315 C61.3764314,17.1120012 60.0741939,12.4244086 57.8072847,12.0398439 C56.2086022,11.7600548 56.3215115,14.9401834 56.7317046,16.603681 C56.929119,17.3639009 57.2710113,18.0680857 57.6746198,18.7540654 C58.1749342,19.5859434 58.8939669,20.5679803 59.767484,19.458315 Z M13.0546299,15.5670879 C13.0546299,15.5670879 13.1938786,16.243836 13.2681188,16.4500302 L13.3607575,17.8784767 C13.3347411,18.0404495 13.2278351,18.7696822 13.179353,18.991951 C13.0346167,19.6384219 12.808539,20.2820524 12.5025401,20.8821716 C11.8905422,22.08241 10.9217394,23.0055064 9.73847921,23.6564317 C9.69709835,23.6753468 9.57295578,23.7320921 9.51123955,23.7502971 C9.24332915,23.8427423 9.07780571,23.9184028 8.80918519,24.0311833 C8.39608672,24.1999991 8.20951779,24.2952848 7.89738603,24.4879865 C7.81391418,24.5461521 7.74935745,24.6456986 7.74509669,24.7677108 C7.75878261,25.541875 8.13140386,26.5321751 8.00345234,27.281033 C7.8270187,28.2521597 6.76247838,28.4185868 5.91265375,28.2667493 C4.79917948,28.0853447 4.94443234,26.2580023 4.94042989,25.7895787 C4.84682276,24.9719033 3.22728822,25.8722756 2.83975431,25.3090182 C2.80050383,25.2669272 2.70379789,25.121029 2.69482455,24.794953 C2.65370199,24.2234324 3.03749176,23.7278305 3.59222766,23.584321 C3.90080879,23.4932961 4.26897577,23.4450722 4.66173887,23.2755464 C4.80692694,23.1991758 4.91428479,23.0400435 4.9199658,22.8773605 C4.92022411,22.2869248 4.77316396,21.8338657 4.74811601,21.3850674 C4.70770359,20.7932114 4.64624567,20.2209806 4.60583324,19.6291246 C4.58007517,19.2006617 4.53895262,18.629141 4.49640981,18.0982911 C4.38362926,17.8296706 4.20913248,17.5792551 3.91049312,17.3855849 C3.71140022,17.2564714 3.63644989,17.0706126 3.62037528,16.9478903 C3.58822607,16.7024456 3.67311817,16.6036093 3.82327713,16.3848912 C3.92992485,16.2460942 4.11791403,16.1101378 4.20493651,15.9502954 C4.24844775,15.8703742 4.27020337,15.8304136 4.29266912,15.7701176 L4.24941618,15.259603 C4.21442646,15.0954999 4.21868722,14.9734877 4.18653801,14.728043 C4.0804069,13.6859684 3.95820119,12.5211715 3.85207008,11.479097 C3.04691864,11.7971032 2.21433056,12.3177531 1.18762047,12.5669419 C0.797697873,12.6551263 0.273949232,12.4943154 0.274207538,11.9038797 C0.285569564,11.5785138 0.417523536,11.2980795 0.649734087,11.0618665 C1.0720642,10.6286909 1.67386198,10.3035834 2.17469306,9.95458981 L3.25698654,9.27977857 C3.65756104,8.88656365 3.53438689,8.33253787 3.47008847,7.84164857 C3.42186465,7.47348159 3.35259533,7.12493985 3.52806054,6.76458427 C3.81301398,6.18409029 4.51861897,5.80152727 5.14972546,5.80320583 C5.94351488,5.8105654 5.98960832,6.23973847 6.21303904,6.83798562 C6.47358987,7.53932985 6.98907529,7.35372935 7.58519206,7.19130473 C7.95477929,7.10241018 8.32436652,7.01351562 8.69324362,6.94495644 C9.41066246,6.80712794 9.83841528,6.80170523 10.5529936,6.7452182 C11.3692488,6.6922818 12.1377319,6.84127881 12.7404334,7.65637203 C13.3235095,8.45041975 13.3133095,9.32555063 13.0872317,9.96918109 C12.8162225,10.7334035 12.3953127,11.1259083 11.8845398,11.759597 C11.5225057,12.2152383 11.0398796,12.625948 10.6974707,13.1026348 C10.6265228,13.3851996 11.5141777,13.6197988 11.6740201,13.7068213 C11.8745333,13.795264 12.0939615,13.9250876 12.2509635,14.0934515 C12.4675512,14.3046166 12.6035076,14.4926058 12.7569589,14.7626466 C12.8333295,14.9078346 12.98252,15.2998876 13.0546299,15.5670879 Z M8.20015742,21.6481365 C9.1389414,20.4185894 9.22764244,19.6276404 9.2373907,18.1824092 C9.24261989,17.4496259 9.02493497,14.9377239 7.82844068,15.3845853 C6.69366261,15.8132418 7.27738412,18.337926 7.345685,19.2972389 C7.38751768,19.8484242 7.41611626,20.1955457 7.49719942,20.7888219 C7.52863851,21.0546019 7.62695822,22.3203655 8.20015742,21.6481365 Z M9.2757384,10.6708476 C9.48903383,10.3932537 9.64487381,10.0118526 9.65765608,9.64581603 C9.6290575,9.29869454 9.24552605,9.20386067 8.98258654,9.15395829 C8.76031776,9.10547617 8.31151945,9.13052411 7.96226758,9.22012879 C7.40753168,9.36363831 7.13678077,9.53742496 6.75441126,9.99235611 C6.37204176,10.4472873 6.58223838,10.8414706 6.64511655,11.3730306 C6.72761997,11.9256362 6.78978801,12.4775316 6.85195606,13.029427 C6.96402648,13.3183829 8.04586815,12.0734712 8.13076025,11.9746349 C8.51241963,11.5400391 8.91370425,11.1264888 9.2757384,10.6708476 Z M41.5446717,17.7225114 C41.6770775,18.0121775 41.5472539,18.2316057 41.3360889,18.4481935 C40.9355144,18.8414084 40.5167349,19.1729071 40.4115074,19.2710333 C39.758387,19.8997511 39.0267657,20.4442869 38.1991485,20.8225892 C36.7508184,21.4846182 34.6931374,22.105008 33.262367,21.0981166 C31.8911824,20.1340264 31.1577538,18.3981607 30.9894546,16.8041907 C30.9301271,16.1709538 30.9336777,16.069277 30.6889432,16.0810908 C30.6482725,16.0796706 29.6721749,16.0455845 29.6104586,16.0637895 C29.5487424,16.0819945 29.5066514,16.121245 29.504521,16.1822511 C29.4938691,16.4872816 29.494321,17.0573819 29.48864,17.2200649 C29.4765678,17.5657661 29.4448704,17.8904218 29.3921275,18.2347028 C29.3112379,18.8019627 29.1903876,19.347467 29.109498,19.9147268 C28.9477187,21.0492466 29.8034178,22.1989373 30.2980513,23.1934982 C30.563573,23.7524949 31.4228228,24.8005088 31.3601381,25.4294849 C31.3558774,25.5514971 31.1454224,25.7477495 30.7365847,25.794553 C29.204331,25.9446472 28.1240392,23.6469443 27.8984781,23.1097033 C27.7478673,22.758321 27.4038446,22.1151424 27.2182441,21.599657 C27.1257989,21.3317466 27.0704738,21.1669333 27.0115981,21.1037968 L27.010888,21.1241321 C26.4258749,21.5516267 24.7060838,22.4077776 24.4998897,22.4820178 C23.7361191,22.781109 22.914893,22.976393 22.0972176,23.0700001 C20.4618668,23.2572144 18.903855,22.9788456 17.5312501,22.0554261 C17.1933603,21.8196649 16.8975614,21.5446532 16.5807171,21.2892668 C16.5610918,21.2682213 16.5407565,21.2675112 16.5211312,21.2464657 L16.4818808,21.2043747 C16.0451546,20.8837214 15.7022939,20.7903078 15.1321935,20.7907596 C14.7458215,20.7772672 14.2738473,20.8829465 13.9780485,20.6079349 C13.8988374,20.5440883 13.8420921,20.4199457 13.8863134,20.3196891 C13.9958017,20.0995507 14.1206544,20.02247 14.3282688,19.9075591 C14.4524114,19.8508137 14.6775206,19.8179544 14.7624127,19.7191181 C14.9111514,19.5410706 14.937878,19.3587625 14.883263,19.1736138 C14.8447226,19.1111874 14.8061823,19.0487611 14.7872672,19.0073802 C14.7676419,18.9863347 14.7683521,18.9659994 14.7487268,18.9449539 C14.6912714,18.8411467 14.634526,18.7170041 14.5974059,18.613907 C14.2976046,17.8704718 14.1555154,17.2750651 14.2021254,16.5233667 C14.2063862,16.4013545 14.2502205,13.9800257 15.8172705,12.8334985 C16.423329,12.3863788 17.0222863,12.1426127 17.7614607,11.9648236 C18.5006352,11.7870345 19.1752529,11.7087918 19.9501272,11.6747705 C20.3575447,11.6686377 21.4984556,11.6473987 22.4639013,11.9865153 C22.7653811,12.098844 23.0044346,12.2497131 23.1614366,12.418077 C23.5749868,12.8193617 23.7156559,13.455439 23.5337995,13.9988129 C23.4874478,14.1600756 23.4221809,14.2799574 23.3372888,14.3787937 C22.7205784,15.130944 22.0225265,15.8802537 21.369406,16.5089715 C20.6741946,17.1769398 20.0631652,17.7664071 19.5713075,18.4414767 C19.0787396,19.1368816 19.3350297,19.960238 19.8873769,20.4681704 C20.2224262,20.785273 20.9031768,21.1144478 21.3673396,21.2324576 L21.8357631,21.2284551 C22.73478,21.1376885 23.8274671,20.7482825 25.0213792,19.7923268 L25.2086583,19.6767057 L25.3559767,19.539329 C25.5874771,19.3234514 25.7797271,19.0654828 25.8513851,18.7625826 C25.8305979,18.1917721 25.5565547,17.8767999 25.3513289,17.3402689 C25.2217636,16.9692615 25.0711529,16.6178792 24.9415876,16.2468717 C24.682457,15.5048568 24.4982768,14.9487006 24.2798169,14.2081059 L23.5133354,11.0865947 C23.443356,10.7583884 23.3369666,10.3067496 23.248072,9.93716233 L23.0360033,9.01354932 C22.9478189,8.62362672 22.8603446,8.21336876 22.7924955,7.82415629 C22.3782999,5.69223514 21.4644999,2.70810068 22.8887505,0.986502281 C24.1642624,-0.557048703 26.034793,1.8496906 26.5847515,3.00906479 C27.2103705,4.33396242 27.4794429,4.79128226 27.8778222,6.21004533 C28.2215865,7.44365972 28.5282308,8.57417703 28.8438484,10.0307703 C28.9509479,10.4620738 29.177671,11.5490798 29.2790895,12.1430662 C29.2965844,12.2251178 29.3140792,12.3071694 29.3119489,12.3681755 C29.3594626,12.7566779 29.3838004,13.2258115 29.4109787,13.6136038 C29.4346064,14.1030728 30.4267786,14.2598812 30.6715131,14.2480674 C30.7121839,14.2494876 30.7739001,14.2312826 30.8356163,14.2130776 C30.9997195,14.1780879 30.9850651,14.0146949 31.0314169,13.8534322 C31.2364491,13.229427 31.500357,12.6685582 31.9059024,12.1329957 C31.9066126,12.1126604 31.9276581,12.0930351 31.9276581,12.0930351 C31.9479934,12.0937453 31.9487035,12.0734099 31.9487035,12.0734099 C32.1830445,11.7761908 32.2904023,11.6170585 32.5843291,11.3626405 L32.6264201,11.32339 C33.2606254,10.6532914 34.8165716,9.24169435 36.9350004,9.21387069 C36.9967166,9.1956657 37.0577227,9.19779608 37.1187288,9.19992646 L37.3017471,9.2063176 C38.400567,9.22432907 38.9671167,9.32555408 39.9689724,9.78810311 C40.5501765,10.0527212 41.5406702,10.8406361 41.6784987,11.5580549 C41.8002525,12.1527514 41.6415721,12.615494 41.1842522,12.8845663 C40.3944653,13.3456303 39.7976384,13.5283903 38.9700212,13.9066925 C37.9565452,14.3599451 36.7818065,14.766846 35.8272062,15.283235 C35.2871247,15.5901376 35.1230215,15.6251273 35.182349,16.2583642 C35.1955831,16.462428 35.3083637,16.7310485 35.3629787,16.9161972 C35.5254033,17.512314 35.7495441,18.0902257 36.0774922,18.6106821 C36.7719287,19.714021 37.4224669,18.5762089 37.9928256,17.9853214 C38.2881726,17.6902326 38.6523371,17.1735853 39.0065599,16.941633 C39.3825383,16.6697202 40.1777479,16.636409 40.995165,17.1332376 C40.995165,17.1332376 41.412266,17.4328454 41.5446717,17.7225114 Z M18.1157474,16.3953513 C18.3394364,16.4031627 18.909085,15.8326105 19.077449,15.6756085 C19.4141768,15.3616047 19.957809,14.9530253 20.1150693,14.5309535 C20.317261,13.9882897 19.1259959,13.7023679 18.5256183,13.9868047 C18.0907643,14.1955811 17.6480988,14.6280465 17.6107204,15.1153851 C17.6021988,15.3594095 17.8927685,16.3672045 18.1157474,16.3953513 Z M25.708393,10.6135234 C25.7783725,10.9417298 26.5944981,14.3907372 26.9740271,14.0171475 C27.2069477,13.7605991 27.1424558,12.1091737 27.118118,11.64004 C27.0625994,10.3146905 26.7048908,8.89734772 26.3225861,7.60130697 C26.2315611,7.29272584 25.7291811,4.7708821 25.0510127,4.95080158 C24.6197093,5.05790112 25.1088552,7.37568107 25.2102737,7.96966746 C25.383092,8.85118948 25.5152395,9.73129125 25.708393,10.6135234 Z M34.982159,13.8285138 C35.2219226,13.9590475 36.1372724,13.4005675 36.3862677,13.2667414 C36.635263,13.1329154 37.0308666,12.882048 37.2609468,12.7068411 C37.4699814,12.5512595 38.0296882,12.2654024 37.8965723,11.9960717 C37.8019968,11.7891674 37.5861191,11.557667 37.3863161,11.4488889 C36.8661181,11.1864012 36.334558,11.2492794 36.0456022,11.3613498 C35.6121683,11.5294555 35.1238612,12.1028482 34.9897769,12.4442887 C34.8999139,12.6854725 34.7234802,13.6565992 34.982159,13.8285138 Z" id="Combined-Shape" fill="#000000" fill-rule="nonzero"></path>
            <path d="M11.6808824,23.75 L16.45,23.75 L25.1088235,40.1205882 L33.5308824,23.75 L38.3,23.75 L39.7205882,49.4558824 L34.7485294,49.4558824 L34.0720588,31.6647059 L27.0029412,45.1602941 L23.0117647,45.1602941 L15.9426471,32.0367647 L15.2661765,49.4558824 L10.2941176,49.4558824 L11.6808824,23.75 Z M49.5558824,49.9970588 C48.0450905,49.9970588 46.6865256,49.6250037 45.4801471,48.8808824 C44.2737685,48.136761 43.3210819,47.0713305 42.6220588,45.6845588 C41.9230357,44.2977872 41.5735294,42.70246 41.5735294,40.8985294 C41.5735294,39.2298936 41.9173985,37.7022128 42.6051471,36.3154412 C43.2928956,34.9286695 44.2681309,33.8125042 45.5308824,32.9669118 C46.7936338,32.1213193 48.2142078,31.6985294 49.7926471,31.6985294 C50.9652019,31.6985294 52.0306325,31.9409289 52.9889706,32.4257353 C53.9473087,32.9105416 54.7083305,33.5926427 55.2720588,34.4720588 L55.3397059,32.2397059 L59.8382353,32.2397059 L59.8382353,49.4558824 L55.3397059,49.4558824 L55.2720588,47.2573529 C54.6857814,48.1593182 53.907848,48.8414193 52.9382353,49.3036765 C51.9686226,49.7659337 50.8411829,49.9970588 49.5558824,49.9970588 Z M50.8411765,45.8029412 C52.1715753,45.8029412 53.2651918,45.3406909 54.1220588,44.4161765 C54.9789259,43.491662 55.4073529,42.296576 55.4073529,40.8308824 C55.4073529,39.3877379 54.9845631,38.2039262 54.1389706,37.2794118 C53.2933781,36.3548973 52.1941244,35.8926471 50.8411765,35.8926471 C49.4882285,35.8926471 48.3889748,36.3548973 47.5433824,37.2794118 C46.6977899,38.2039262 46.275,39.3877379 46.275,40.8308824 C46.275,42.296576 46.7034271,43.491662 47.5602941,44.4161765 C48.4171611,45.3406909 49.5107777,45.8029412 50.8411765,45.8029412 Z M63.1897059,32.2397059 L67.7220588,32.2397059 L67.7558824,35.0808824 C68.2294141,34.0661714 68.8664176,33.288238 69.6669118,32.7470588 C70.467406,32.2058796 71.3975437,31.9352941 72.4573529,31.9352941 C73.1789252,31.9352941 73.8441146,32.0593125 74.4529412,32.3073529 L74.0470588,36.7382353 C73.3480357,36.4676457 72.6490231,36.3323529 71.95,36.3323529 C70.6646995,36.3323529 69.6669153,36.7946032 68.9566176,37.7191176 C68.24632,38.6436321 67.8911765,39.9401877 67.8911765,41.6088235 L67.8911765,49.4558824 L63.1897059,49.4558824 L63.1897059,32.2397059 Z M76.2485294,22.0588235 L80.95,22.0588235 L80.95,38.6661765 L87.1397059,32.2397059 L92.9573529,32.2397059 L85.2117647,39.9514706 L94.2088235,49.4558824 L88.1544118,49.4558824 L80.95,41.6088235 L80.95,49.4558824 L76.2485294,49.4558824 L76.2485294,22.0588235 Z M102.841176,49.9970588 C100.834304,49.9970588 99.0811349,49.6362781 97.5816176,48.9147059 C96.0821003,48.1931336 94.9152002,47.1389775 94.0808824,45.7522059 C93.2465645,44.3654342 92.8294118,42.7362839 92.8294118,40.8647059 C92.8294118,39.1284227 93.1901925,37.5669187 93.9117647,36.1801471 C94.6333369,34.7933754 95.6593071,33.6997589 96.9897059,32.8992647 C98.3201047,32.0987705 99.8646971,31.6985294 101.623529,31.6985294 C103.247067,31.6985294 104.673278,32.0423985 105.902206,32.7301471 C107.131134,33.4178956 108.089457,34.4044053 108.777206,35.6897059 C109.464954,36.9750064 109.808824,38.49705 109.808824,40.2558824 C109.808824,41.0000037 109.752452,41.6764675 109.639706,42.2852941 L97.4970588,42.2852941 C98.0833363,44.8558952 100.033807,46.1411765 103.348529,46.1411765 C104.385789,46.1411765 105.394848,46.0340697 106.375735,45.8198529 C107.356623,45.6056362 108.241663,45.2955903 109.030882,44.8897059 L109.504412,48.5764706 C108.692643,49.0274532 107.700496,49.3769595 106.527941,49.625 C105.355386,49.8730405 104.126477,49.9970588 102.841176,49.9970588 Z M105.310294,39.0044118 C105.197548,37.8093077 104.808582,36.8904444 104.143382,36.2477941 C103.478183,35.6051438 102.593143,35.2838235 101.488235,35.2838235 C100.405877,35.2838235 99.5151996,35.6051438 98.8161765,36.2477941 C98.1171534,36.8904444 97.6661775,37.8093077 97.4632353,39.0044118 L105.310294,39.0044118 Z M119.992647,49.9970588 C117.850479,49.9970588 116.260789,49.4502506 115.223529,48.3566176 C114.186269,47.2629847 113.667647,45.5887368 113.667647,43.3338235 L113.667647,36.1294118 L110.319118,36.1294118 L110.319118,32.2397059 L113.667647,32.2397059 L113.667647,27.5720588 L118.369118,27.5720588 L118.369118,32.2397059 L123.747059,32.2397059 L123.747059,36.1294118 L118.369118,36.1294118 L118.369118,42.4882353 C118.369118,43.6833393 118.572057,44.5401935 118.977941,45.0588235 C119.383826,45.5774536 120.071564,45.8367647 121.041176,45.8367647 C122.146084,45.8367647 123.16078,45.588728 124.085294,45.0926471 L124.592647,49.0161765 C124.074017,49.3093152 123.40319,49.5460775 122.580147,49.7264706 C121.757104,49.9068636 120.894612,49.9970588 119.992647,49.9970588 Z" id="Market-Copy-2" fill="#D3718E"></path>
        </g>
    </g>
</svg>